PathFileType	4	(X/Y/Z)	Patient4_TMGait_0pt4_02_left_35.trc.trc
DataRate	CameraRate	NumFrames	NumMarkers	Units	OrigDataRate	OrigDataStartFrame	OrigNumFrames
74.074074074074	74.074074074074	4	33	mm	74.074074074074	18	       141
Frame#	Time	Sacral			L.Shoulder			Chest			R.Shoulder			Neck			R.ASIS			L.ASIS			R.Thigh.Superior			R.Thigh.Lateral			R.Thigh.Inferior			R.Patella			L.Thigh.Superior			L.Thigh.Lateral			L.Thigh.Inferior			L.Patella			L.Shank.Superior			L.Shank.Lateral			L.Shank.Inferior			R.Shank.Superior			R.Shank.Lateral			R.Shank.Inferior			R.Heel			R.Midfoot.Superior			R.Midfoot.Lateral			R.Toe			L.Heel			L.Midfoot.Lateral			L.Midfoot.Superior			L.Toe			L.Elbow			L.Wrist			R.Elbow			R.Wrist			
		X1	Y1	Z1	X2	Y2	Z2	X3	Y3	Z3	X4	Y4	Z4	X5	Y5	Z5	X6	Y6	Z6	X7	Y7	Z7	X8	Y8	Z8	X9	Y9	Z9	X10	Y10	Z10	X11	Y11	Z11	X12	Y12	Z12	X13	Y13	Z13	X14	Y14	Z14	X15	Y15	Z15	X16	Y16	Z16	X17	Y17	Z17	X18	Y18	Z18	X19	Y19	Z19	X20	Y20	Z20	X21	Y21	Z21	X22	Y22	Z22	X23	Y23	Z23	X24	Y24	Z24	X25	Y25	Z25	X26	Y26	Z26	X27	Y27	Z27	X28	Y28	Z28	X29	Y29	Z29	X30	Y30	Z30	X31	Y31	Z31	X32	Y32	Z32	X33	Y33	Z33	

18	47.019500000000	825.580826052994	1004.476119501554	540.169335510101	960.306502693160	1439.701543156523	344.921026984756	1094.431296491748	1369.033124347947	479.911898507632	1047.944638450767	1435.093224591188	669.588531769820	973.086129367431	1496.413259250323	503.633678529453	1068.941361957904	943.103568873829	618.694728228654	1013.158272250860	966.824168615429	348.581662896131	1073.382046989284	733.107191098191	589.445066631171	980.561695723805	632.783078508321	659.101990581168	1037.901320522587	572.731226431185	574.094055971436	1024.958977170549	488.735458362766	580.568987654125	1094.715359367074	781.409416050790	365.412250812072	1041.888418872805	653.399724213994	288.152912782177	1150.821659278598	595.225745712343	338.154461645818	1178.262133626363	533.136114811208	331.050946508104	1163.238187624058	462.108661807562	319.334581589489	1098.403962170926	332.194566940071	267.367200910715	1192.889712706372	234.280304300946	311.114558756892	992.268985857265	401.815553445370	587.602136482707	917.843395625194	300.914669610146	651.480389923825	951.924016360775	205.426302522818	582.928523306501	811.600357314064	42.662611791376	552.856416613828	983.832539305342	96.368640569107	584.556444776778	896.864486109607	36.601433139817	625.610827595258	1104.705280654490	44.290444300225	607.947835400444	1117.889667068098	53.899351633913	350.241981585284	1187.226733036183	58.661135842586	266.489163289804	1257.965580957287	137.625203817279	283.383086171385	1389.879165371892	110.129847013393	249.665847815107	825.418466537986	1108.615705467639	264.236735862256	797.490781219906	848.848543526488	277.318428608308	1204.701312574603	1132.159033214115	777.393204426810	1431.206460069094	1216.133381139959	707.183167326974	
19	47.033000000000	826.438787151040	1003.435541918369	538.315150242219	959.297963044024	1439.153849453395	343.692562097905	1093.675244742199	1368.810100867855	478.585209412805	1046.899226727683	1434.376121020101	668.335998403309	972.073130745137	1495.688359982775	502.501503706619	1069.560320557993	942.887762131478	617.632769684353	1014.468301652049	965.688019723538	347.275277335485	1072.910533131205	732.429525988371	589.154068451017	978.822917888989	632.674741256490	658.473105343392	1036.128208980090	571.995043369518	573.995532863068	1022.500942664936	487.904152337766	580.378952362284	1095.875035913550	779.621793239563	363.973472365462	1041.189565100498	650.542779268677	288.834586410991	1150.664164419198	592.675853176465	337.668056472065	1177.203863631302	529.610264392051	331.526616336767	1161.002435614078	458.152751592173	320.654183113060	1093.313250096610	329.261599437802	269.956714259230	1185.846208957993	229.738681489928	313.990737870355	989.121436024150	401.356536582895	587.437627344426	913.781046501840	301.127759122072	651.313206451975	947.318542238480	205.240482522068	582.948909831427	806.153053166288	42.705152247098	552.950570141519	978.460609821110	96.330066057194	584.656906032059	891.420259343245	36.548500842514	625.662632923641	1099.285015463158	44.110072063166	608.008588996978	1107.040698149203	51.785739700705	354.591198211428	1175.740207544579	54.806221620017	270.274224762630	1248.711374118331	131.658714035644	286.667270462928	1379.489889979112	100.632804364349	251.817752737493	824.063575609307	1108.498028100454	262.775807893385	798.295281827806	848.371143786395	275.389688573417	1205.948664110478	1132.562582139601	775.031665153764	1429.784016022486	1222.515853417917	704.631701993112	
20	47.046500000000	827.342566127428	1002.295966966431	536.169088689539	958.441901891589	1438.480313218728	342.218949490374	1092.969388209628	1368.533657945807	477.156064961774	1045.700480759089	1433.591680471846	666.950479150195	971.067904887602	1494.887675311828	501.153175895487	1070.246892915561	942.581924752659	616.477703479556	1016.001161520400	964.463888857969	345.887460485492	1072.738267506122	731.697602197474	588.740355441590	977.453613682906	632.477886141090	657.687167230641	1034.775097024179	571.183592688416	573.721289439325	1020.440725084888	486.958819711405	579.999050334725	1096.982346866850	777.430202082879	362.618214201761	1040.401604462650	647.563731695216	289.458569721872	1150.187074778240	589.791114683900	337.467599613216	1175.691938137367	525.674897411311	332.240517633950	1158.246278577933	453.845725124742	322.079700397121	1087.540950460414	326.068961836040	272.665779199836	1177.985655829881	224.834725556915	317.040259732596	986.330113452158	400.785066407219	587.123056962389	910.018294963089	301.320411559192	651.049399712862	942.863357051745	204.996493499344	582.898694061823	800.719326181609	42.777720315468	553.061109622520	973.101674647875	96.279887856851	584.750729886848	885.990721952922	36.499245092885	625.724006834743	1093.878869741967	43.896530430396	608.075177277008	1095.134042958719	49.477875007729	358.985918547213	1163.254008059348	50.822218438920	274.150341023455	1238.543208587099	125.360033467914	290.272447455114	1368.171986201286	90.645058941027	254.348985625598	823.434991034674	1107.986563411450	260.880481440747	800.310173472068	847.452289325509	272.791390620293	1206.542908447267	1132.582180822329	772.819125387617	1428.116779133559	1227.485856700622	702.423238172028	
21	47.060000000000	828.252335425608	1001.110066840004	533.769171207619	957.780370401109	1437.711886226106	340.489756793741	1092.341391604475	1368.215391290135	475.617451681828	1044.389373144285	1432.773737255221	665.420230049419	970.115263478942	1494.049365314271	499.570616396004	1070.983866978240	942.193509347879	615.206336992039	1017.678682496727	963.201607489900	344.417565946689	1072.856814737058	730.923892958602	588.155306609412	976.477125663569	632.193929867865	656.719111294959	1033.848232127996	570.309186910496	573.232180896989	1018.788619010042	485.911860522213	579.396291843544	1097.957277214108	774.882106145138	361.360328541367	1039.474777236466	644.567270811390	289.974693422103	1149.340218784630	586.679824432628	337.546995145828	1173.716638465660	521.506446314315	333.161126995760	1155.047423773016	449.396037915297	323.536073471244	1081.380402266453	322.758724403562	275.344937067906	1169.708751144771	219.841987944254	320.125960251308	983.902339308751	400.108982957620	586.636975230301	906.570268422886	301.506518669651	650.680837073022	938.567458992034	204.709643467988	582.775123854457	795.304814806754	42.909797956126	553.196457001696	967.764581210959	96.223613959871	584.838642452244	880.582143029736	36.466314596607	625.798657840939	1088.489740183514	43.643610344064	608.147892030022	1082.805956338134	47.126486820112	363.193807183488	1150.464250296278	46.973663121611	277.932945848291	1228.003230991554	119.118031260356	294.067484797137	1356.549586026712	80.778654064730	257.230406383929	823.601562677740	1107.094004642310	258.549951891487	803.515605751656	846.135299536282	269.552386774598	1206.466440133304	1132.209529962005	770.770348012210	1426.275644218919	1231.013025834968	700.578454564074	
